<svg xmlns="http://www.w3.org/2000/svg" width="9" height="9"><path d="M2 0v1H1v1H0v2h1v1h1v1h1v1h3v2h2V8h1V6H7V3H6V2H5V1H4V0z"/><path fill="#b88458" d="M6 4V3H5V2H3v2z"/><path fill="#613c1b" d="M2 4v1h1v1h1V4z"/><path fill="#e2d5aa" d="M6 6h1v1H6z"/><path fill="#fff7dc" d="M7 7h1v1H7z"/><path fill="#d42a2a" d="M1 4h2V3h1V1H2v1H1z"/><path fill="#7b512d" d="M3 4v1h1v1h2V4z"/><path fill="#b21818" d="M1 3h1v1H1zm2-2h1v1H3z"/><path fill="#9d6d43" d="M4 5h2V4H5V3H4z"/><path fill="#dfb18f" d="M2 2h1v1H2z"/></svg>